# xmcd
#
# Track frame offsets: 
#        150
#        12325
#        24572
#        38490
#        51042
#        66905
#        77695
#        88955
#        105085
#        116555
#        128757
#        143165
#        159032
#        173975
#        186550
#        201645
#        215970
#        228642
#        243685
#        255032
#        268012
#        280120
#
# Disc length: 3931 seconds
#
# Revision: 2
# Processed by: cddbd v1.5.2PL0 Copyright (c) Steve Scherf et al.
# Submitted via: ExactAudioCopy v1.0b3
#
DISCID=390f5916
DTITLE=Various Artist - 筒美京平 ウルトラ・ベスト・トラックス コロムビア編 Vol.3 GS&GUYS COCA
DTITLE=14811
DYEAR=1900
DGENRE=Pop
TTITLE0=ジャッキー吉川とブルー・コメッツ - 涙の糸
TTITLE1=ジャッキー吉川とブルー・コメッツ - さよならのあとで
TTITLE2=ジャッキー吉川とブルー・コメッツ - 生きるよろこびを
TTITLE3=ズー・ニー・ヴー - ひとりの悲しみ
TTITLE4=ズー・ニー・ヴー - 未成年
TTITLE5=井上宗孝とシャープ・ファイヴ - 哀愁の六本木
TTITLE6=井上宗孝とシャープ・ファイヴ - 孤独な少女
TTITLE7=井上宗孝とシャープ・ファイヴ - 京都・神戸・銀座
TTITLE8=内田裕也とフラワーズ - フラワー・ボーイ
TTITLE9=内田裕也とフラワーズ - 夜霧のトランペット
TTITLE10=佐川満男 - フランス人のように
TTITLE11=黒沢年男 - 花と海
TTITLE12=Ｊ・シャングリラ - 渚に夢ひとつ
TTITLE13=Ｊ・シャングリラ - 星が降るまで
TTITLE14=ビリー・バンバン - 愛すべき僕たち
TTITLE15=桜木健一 - 恋はうそつき
TTITLE16=松浦健 - 思いきらずにいられない
TTITLE17=堺正章 - さらば恋人
TTITLE18=堺正章 - 恋人なんかすてちまえ
TTITLE19=堺正章 - 運がよければいいことあるさ
TTITLE20=堺正章 - ベイビー、勇気をだして
TTITLE21=堺正章 - 恋人時代
EXTD=
EXTT0=
EXTT1=
EXTT2=
EXTT3=
EXTT4=
EXTT5=
EXTT6=
EXTT7=
EXTT8=
EXTT9=
EXTT10=
EXTT11=
EXTT12=
EXTT13=
EXTT14=
EXTT15=
EXTT16=
EXTT17=
EXTT18=
EXTT19=
EXTT20=
EXTT21=
PLAYORDER=
